<svg xmlns="http://www.w3.org/2000/svg" xmlns:xlink="http://www.w3.org/1999/xlink" viewBox="0 0 130.81 127.91"><defs><style>.cls-1{fill:url(#Градієнт_без_назви_17);}.cls-2{fill:#242528;}</style><linearGradient id="Градієнт_без_назви_17" x1="127.84" y1="67.59" x2="0.71" y2="58.41" gradientUnits="userSpaceOnUse"><stop offset="0" stop-color="#f89031"/><stop offset="0.02" stop-color="#f19539"/><stop offset="0.05" stop-color="#dda24f"/><stop offset="0.08" stop-color="#bdb873"/><stop offset="0.12" stop-color="#90d6a5"/><stop offset="0.16" stop-color="#57fce4"/><stop offset="0.17" stop-color="#52ffe9"/><stop offset="0.22" stop-color="#3edadf"/><stop offset="0.28" stop-color="#27b1d4"/><stop offset="0.34" stop-color="#1793cd"/><stop offset="0.4" stop-color="#0d80c8"/><stop offset="0.43" stop-color="#097ac6"/><stop offset="0.46" stop-color="#117fc3"/><stop offset="0.49" stop-color="#268dba"/><stop offset="0.53" stop-color="#4aa4ab"/><stop offset="0.58" stop-color="#7bc496"/><stop offset="0.64" stop-color="#b9ec7d"/><stop offset="0.66" stop-color="#d2fc72"/><stop offset="0.83" stop-color="#deb9a9"/><stop offset="1" stop-color="#535dfa"/></linearGradient></defs><g id="Слой_2" data-name="Слой 2"><g id="Layer_1" data-name="Layer 1"><path class="cls-1" d="M130,75.15a32,32,0,0,1-9.85,9.73,22.24,22.24,0,0,1-11.74,3.31A19.44,19.44,0,0,1,97.3,84.7a18.49,18.49,0,0,1-4.77-5,18,18,0,0,1-1.06,3.62A57,57,0,0,1,88.72,89c-.66,1.18-1.31,2.36-1.87,3.58.08-.23.17-.45.26-.68-.14.34-.29.69-.43,1,0-.12.11-.24.17-.36a14.65,14.65,0,0,0-.68,2.32c0-.24,0-.49.07-.73-.06.46-.13.93-.19,1.39v0c.07.5.14,1,.2,1.49,0-.27-.06-.53-.07-.8a12,12,0,0,0,.42,1.53c-.09-.2-.19-.39-.28-.59.2.47.4.93.6,1.41-.12-.27-.22-.55-.32-.82a14.15,14.15,0,0,0,1.06,1.8c-.17-.2-.34-.4-.5-.62l.92,1.2c-.15-.19-.29-.38-.42-.58a15.21,15.21,0,0,0,1.66,1.65,7.17,7.17,0,0,1-.63-.45l1.19.92-.56-.47a14.73,14.73,0,0,0,2.06,1.2l-.68-.26,1.41.59c-.25-.1-.49-.21-.73-.33a18.66,18.66,0,0,0,3.18.85l-.78-.08c.52.06,1,.14,1.56.21l-.78-.13a24.37,24.37,0,0,0,4.6,0l-.83.13c.52-.07,1-.15,1.57-.21l-.74.08a32.76,32.76,0,0,0,3.53-.8,6.09,6.09,0,0,1,4.54.59,5.91,5.91,0,0,1,2.12,8.07,6.14,6.14,0,0,1-3.53,2.71,36.62,36.62,0,0,1-7,1.25,28.62,28.62,0,0,1-7-.35C84,113.55,77,107.74,75,100.07a16,16,0,0,1-.55-5.56,19.42,19.42,0,0,1-1.91,1.16c-2.65,1.45-5.51,2.53-8,4.26l.53-.44-1.19.92c.22-.17.43-.32.66-.48a12.16,12.16,0,0,0-1.2,1.18c.15-.22.3-.44.46-.65l-.87,1.12h0l-.55,1.32c.09-.23.2-.44.3-.65a14.37,14.37,0,0,0-.46,1.71c0-.26,0-.51.08-.77l-.21,1.56c0-.26.08-.53.13-.79a14.73,14.73,0,0,0,0,2.3c-.06-.28-.11-.57-.15-.85.07.52.15,1,.22,1.56,0-.23-.06-.47-.07-.71a14.74,14.74,0,0,0,.64,2.34c-.12-.25-.24-.49-.34-.74l.59,1.41c-.09-.22-.18-.45-.25-.67a15.53,15.53,0,0,0,1.34,2.25c-.16-.18-.3-.35-.44-.53l.93,1.2c-.17-.22-.34-.44-.49-.67a20,20,0,0,0,2.49,2.46l-.65-.48,1.19.92-.52-.42a27,27,0,0,0,4.3,2.48l-.63-.25,1.4.59-.76-.34c.43.17.87.34,1.31.49A6.48,6.48,0,0,1,75.83,119a5.9,5.9,0,0,1-6.66,8.66,32.28,32.28,0,0,1-11.94-7A22.09,22.09,0,0,1,51,110.08a20,20,0,0,1-.58-6.16,22.83,22.83,0,0,1,.56-3.69,20.86,20.86,0,0,1,1.31-3.51,10.71,10.71,0,0,1,1.17-2,24.31,24.31,0,0,1,1.61-2,17.32,17.32,0,0,1-2.88,0,43.75,43.75,0,0,1-6.53-1.15c-1.48-.36-3-.75-4.48-1l.81.08c-.53-.06-1.05-.13-1.57-.21l.76.13a14.09,14.09,0,0,0-2.43,0q.41-.09.81-.15L38,90.54c.25,0,.5-.06.75-.07a12.28,12.28,0,0,0-1.32.36c.21-.1.42-.21.64-.3l-1.41.59.77-.29a11.74,11.74,0,0,0-1.37.81l.55-.45-1.2.92q.32-.24.63-.45a13.93,13.93,0,0,0-1.38,1.39c.13-.2.28-.39.42-.58-.31.39-.61.79-.92,1.19.16-.21.33-.41.5-.61a16.07,16.07,0,0,0-1.22,2.09c.09-.25.18-.5.29-.74l-.6,1.41c.1-.23.2-.45.31-.67a15.78,15.78,0,0,0-.63,2.36c0-.27,0-.54.08-.81l-.21,1.56c0-.25.08-.5.13-.75a18,18,0,0,0,0,3.28c0-.28-.09-.57-.13-.85l.21,1.57c0-.25,0-.48-.08-.72A24.61,24.61,0,0,0,34,105.24c-.1-.2-.19-.41-.28-.62.2.47.4.94.59,1.41l-.31-.79a28.73,28.73,0,0,0,1.67,3.15,6.12,6.12,0,0,1,.59,4.55,5.94,5.94,0,0,1-2.71,3.52,6,6,0,0,1-4.54.6,6.14,6.14,0,0,1-3.52-2.72,37.4,37.4,0,0,1-3-6.36,29.09,29.09,0,0,1-1.48-6.9,21.12,21.12,0,0,1,9.24-19.76,16.47,16.47,0,0,1,4.59-2l-.5-.45a59.12,59.12,0,0,1-5.91-7.43c.17.21.33.42.5.62L28,70.83l.43.57A20.73,20.73,0,0,0,26,68.85l.67.49-1.19-.92.52.43a11.85,11.85,0,0,0-1.24-.73l.68.25-1.41-.59c.25.1.49.22.73.34a10,10,0,0,0-1.43-.38c.24,0,.47,0,.7.06l-1.57-.21q.45.06.87.15a14.39,14.39,0,0,0-2,0l.76-.12-1.57.2.81-.08a14.55,14.55,0,0,0-2.26.63c.22-.12.45-.22.68-.32l-1.41.6.73-.28a13.76,13.76,0,0,0-2,1.19c.17-.16.36-.31.55-.46l-1.2.92a7.59,7.59,0,0,1,.65-.46,16.06,16.06,0,0,0-2,2c.12-.19.26-.37.39-.55-.3.4-.61.8-.92,1.19l.52-.63a21.7,21.7,0,0,0-2,3.44c.09-.24.19-.49.29-.73L13,75.38c.05-.11.1-.23.16-.34a28.61,28.61,0,0,0-1.53,5.83,5.68,5.68,0,0,1-2.7,3.52A6,6,0,0,1,4.33,85a6,6,0,0,1-3.52-2.7,4.46,4.46,0,0,1-.7-2.19,4.51,4.51,0,0,1,.11-2.36,29.78,29.78,0,0,1,4-11.06,22.94,22.94,0,0,1,8.31-8.15,20.54,20.54,0,0,1,5.41-2.08A19,19,0,0,1,23.7,56a19.28,19.28,0,0,1,6.82,1.85,11.8,11.8,0,0,1,1.47.83A24,24,0,0,1,31.31,54c-.17-3.49.51-7,.22-10.5.06.29.1.57.14.85l-.21-1.56c0,.24.06.47.07.71a12.65,12.65,0,0,0-.45-1.71c.13.25.25.49.36.75l-.57-1.34h0L30,40c.15.19.29.39.43.6a11.74,11.74,0,0,0-1.18-1.16c.18.11.36.24.54.37l-1.2-.92c.23.18.45.36.66.55a13,13,0,0,0-1.91-1.11c.23.07.45.16.67.25L26.56,38l.74.34a14.72,14.72,0,0,0-2.36-.65l.87.09-1.57-.21c.24,0,.47.07.7.12a16.12,16.12,0,0,0-2.69,0l.78-.13-1.57.22.79-.09a21.44,21.44,0,0,0-3.5,1l.65-.29L18,39l.76-.3a26.69,26.69,0,0,0-4.31,2.55l.54-.43-1.19.92.65-.49c-.35.28-.69.57-1,.87a6.46,6.46,0,0,1-4.17,1.73,5.91,5.91,0,0,1-4.17-1.73,5.88,5.88,0,0,1,0-8.33,32,32,0,0,1,12.07-7,22.39,22.39,0,0,1,12-.26,19.73,19.73,0,0,1,9.57,5.65,18.42,18.42,0,0,1,3.6,5.95A14.16,14.16,0,0,1,43,40.78a22.49,22.49,0,0,1,5.7-8.92C50.77,29.8,53.13,28,55,25.8c-.14.22-.3.43-.45.63.3-.4.61-.79.92-1.19-.16.19-.31.38-.47.56A12,12,0,0,0,56,24.22c-.08.24-.16.48-.26.72.18-.44.37-.87.55-1.31,0,0,0,.07,0,.1s0-.07,0-.11h0c.07-.49.13-1,.2-1.46,0,.26-.08.51-.13.76a13.94,13.94,0,0,0,0-1.71c0,.23.08.45.12.67l-.21-1.57c0,.3.07.59.09.88A15.39,15.39,0,0,0,55.7,19l.36.79-.6-1.41.24.62a16.15,16.15,0,0,0-1.2-2.05l.45.54L54,16.28c.17.21.33.43.48.65a15.76,15.76,0,0,0-1.8-1.76c.21.14.41.29.61.44l-.9-.69a3.47,3.47,0,0,1,.29.25,19.21,19.21,0,0,0-3-1.72l.62.24-1.41-.6c.27.12.53.23.79.36a25.13,25.13,0,0,0-4.9-1.31l.82.09L44.08,12l.74.12c-.58-.07-1.15-.11-1.73-.14a6.4,6.4,0,0,1-4.16-1.73A6,6,0,0,1,37.2,6.1,5.91,5.91,0,0,1,43.09.21,32.06,32.06,0,0,1,56.73,3.79a21.87,21.87,0,0,1,8.83,8.62,19.74,19.74,0,0,1,2.14,5.7,23.57,23.57,0,0,1,.44,3.73,22.11,22.11,0,0,1-.36,3.72,14.83,14.83,0,0,1-1.43,4.27,17.5,17.5,0,0,1,2.26-.49,49.62,49.62,0,0,1,6.66-.49c1.51,0,3,0,4.5-.16l-.68.11,1.56-.21-.88.1A15.33,15.33,0,0,0,82,28.12l-.68.32,1.27-.53s0,0,0,0h0L83.68,27c-.2.15-.39.29-.59.42a11.63,11.63,0,0,0,1.1-1.12c-.15.22-.31.44-.47.65.31-.4.62-.79.92-1.19-.14.18-.3.37-.45.54a14.65,14.65,0,0,0,1-1.76c-.08.24-.17.47-.27.7l.6-1.41c-.11.24-.21.47-.33.71a15.13,15.13,0,0,0,.65-2.37c0,.26,0,.52-.08.78L86,21.42a6.85,6.85,0,0,1-.13.79,15.26,15.26,0,0,0,0-2.53c0,.24.09.49.12.74l-.21-1.56c0,.27.07.55.09.82a18.82,18.82,0,0,0-.91-3.2l.29.63-.6-1.41c.11.26.21.52.31.78a23.73,23.73,0,0,0-2.28-3.86c.16.18.31.37.46.56L82.19,12c.15.19.3.4.45.6a27.7,27.7,0,0,0-2.32-2.52A6.08,6.08,0,0,1,78.6,5.9a6,6,0,0,1,1.72-4.18A6,6,0,0,1,84.49,0a6.12,6.12,0,0,1,4.17,1.72A36,36,0,0,1,93.08,7a28.89,28.89,0,0,1,3.15,6.1,21.21,21.21,0,0,1-3.79,21.68,16.61,16.61,0,0,1-6.29,4.32,24.54,24.54,0,0,1,2.39,1.08c2.87,1.51,5.3,3.75,7.83,5.76l-.66-.49.93.71L96.37,46a19.58,19.58,0,0,0,3.08,1.92l-.65-.24,1.37.58h0l1.38.19h0l1.51-.2-.76.07a12.77,12.77,0,0,0,2-.54l-.68.32,1.4-.6a7.69,7.69,0,0,1-.72.28,15.55,15.55,0,0,0,2-1.18l-.57.47,1.19-.93c-.2.16-.41.31-.62.46A15.91,15.91,0,0,0,107.87,45c-.16.23-.31.45-.48.66l.92-1.19c-.14.18-.29.36-.44.53a17.3,17.3,0,0,0,1.47-2.54l-.27.7c.19-.48.39-.95.59-1.41-.1.24-.21.47-.32.71a21.58,21.58,0,0,0,1-3.94c0,.27,0,.53-.09.8.06-.4.11-.79.16-1.19,0,.13,0,.26-.07.39a28.59,28.59,0,0,0,0-5.85,5.69,5.69,0,0,1,1.73-4.17,5.88,5.88,0,0,1,8.33,0,4.24,4.24,0,0,1,1.22,1.9,4.43,4.43,0,0,1,.51,2.27,29.76,29.76,0,0,1-1.09,11.94,22.9,22.9,0,0,1-6,10,20.38,20.38,0,0,1-4.66,3.32,18.9,18.9,0,0,1-5.2,1.86,20,20,0,0,1-3.71.38,18.54,18.54,0,0,1-2.77-.26,23.47,23.47,0,0,1,1.17,3.46c.78,3.07,1.07,6.27,2.16,9.25-.11-.23-.22-.45-.31-.68.19.47.39.94.59,1.41-.1-.24-.2-.48-.28-.73a11.13,11.13,0,0,0,.82,1.42c-.16-.17-.31-.35-.46-.54l.82,1.07,0,0,1.09.83a5.83,5.83,0,0,1-.55-.46,12.52,12.52,0,0,0,1.5.88l-.76-.29,1.41.59c-.22-.09-.44-.19-.65-.3a15.35,15.35,0,0,0,2.21.6l-.87-.1c.52.08,1,.15,1.57.21l-.7-.11a16.29,16.29,0,0,0,2.42,0q-.35.08-.69.12l1.57-.21c-.29,0-.59.07-.88.09a16,16,0,0,0,2.62-.74,6.62,6.62,0,0,1-.66.3l1.41-.59-.75.29a20,20,0,0,0,3.15-1.88c-.2.17-.39.33-.6.49l.92-.71-.28.19a25,25,0,0,0,3.38-3.45,2.33,2.33,0,0,1-.17.26c.24-.31.48-.63.73-.94-.18.23-.37.46-.56.68.27-.34.51-.69.75-1a6.52,6.52,0,0,1,3.53-2.71A5.89,5.89,0,0,1,130,75.15Z"/><path class="cls-2" d="M64.59,62C60,58.76,56.42,52.78,57.67,47A15,15,0,0,1,68.26,35.86c5.72-1.54,12.2.6,17.5-2.66,4-2.42,6.16-7.11,6.3-11.66.18-6.09-3.21-11.69-7.42-15.82-.35-.34-.88.19-.53.53,4.16,4.08,7.5,9.63,7.18,15.65-.31,5.81-4.07,11-9.91,12.16s-11.72-.5-17,2.64a15.56,15.56,0,0,0-7.62,11.43c-.58,5.74,3,11.33,7.48,14.56.39.28.77-.37.38-.65Z"/><path class="cls-2" d="M64.76,62.08A14.64,14.64,0,0,1,85.82,45.29c4.55,2.46,7.85,7,13,8.46,4.82,1.35,10.07-.74,13.39-4.3,4.27-4.57,5.34-11.2,4.73-17.22-.05-.48-.8-.48-.75,0,.6,5.93-.42,12.55-4.77,17-4.2,4.26-10.44,5.52-15.66,2.39-4.53-2.72-7.91-7.13-13.27-8.35A15.36,15.36,0,0,0,64,62.28a.37.37,0,0,0,.72-.2Z"/><path class="cls-2" d="M64.85,62.43a17,17,0,0,1,13.38-9.12A14.91,14.91,0,0,1,92.4,61.4c2.61,5.21,1.69,11.73,5.38,16.48,3,3.8,8.09,5.35,12.76,4.75,6.18-.79,11.2-5.19,14.59-10.18.27-.4-.38-.77-.65-.37C121.14,77,116.07,81.4,109.91,82s-11.64-2.62-13.56-8.49c-1.74-5.32-1.53-11.09-5.4-15.54a15.54,15.54,0,0,0-13.33-5.3A17.83,17.83,0,0,0,64.2,62.05c-.2.43.44.81.65.38Z"/><path class="cls-2" d="M65,62.66a16,16,0,0,1,16.12,1.72,15,15,0,0,1,5.09,14.77c-1.24,5.39-5.62,9.55-6.31,15.12-.62,4.88,2.09,9.57,6,12.36,5.3,3.82,12.38,3.73,18.42,2a.37.37,0,0,0-.2-.72c-6.05,1.74-13.2,1.79-18.36-2.31a13.85,13.85,0,0,1-4.74-6.88,12.39,12.39,0,0,1,1-8.66c2.21-4.9,5.64-9.14,5.36-14.8a15.54,15.54,0,0,0-6.74-12.19A16.93,16.93,0,0,0,64.57,62c-.44.21-.06.85.38.65Z"/><path class="cls-2" d="M64.63,62.81c5.53,1,11.09,4.86,12.58,10.51a15,15,0,0,1-5.32,15.33c-4.23,3.23-10,4.24-13.49,8.52-3.16,3.93-3.33,9.59-1.38,14.1,2.43,5.61,7.9,9.24,13.5,11.18.46.16.65-.56.2-.72-5.6-2-11.14-5.67-13.29-11.44S56.87,98.37,62,95c4.37-2.88,9.7-4.11,13-8.41a15.55,15.55,0,0,0,2.56-14.47c-1.94-5.35-7.32-9-12.78-10-.47-.09-.67.64-.2.72Z"/><path class="cls-2" d="M64.5,62.94A14.23,14.23,0,0,1,66.25,79.1a15,15,0,0,1-13.47,7.45C47.16,86.29,41.63,83,36,84.76a14.16,14.16,0,0,0-8.91,9.37c-1.88,5.93,0,12.36,3.12,17.52.25.41.9,0,.65-.38-3.09-5.14-5-11.58-2.88-17.45,1.9-5.31,6.71-9.14,12.47-8.79S51.23,88.28,57,86.9a15.77,15.77,0,0,0,10.62-8.76A15.07,15.07,0,0,0,65,62.41c-.31-.37-.84.16-.53.53Z"/><path class="cls-2" d="M64.15,62.67a17.14,17.14,0,0,1-8,13.93A14.87,14.87,0,0,1,39.5,75.21c-4.08-3.36-6-8.71-10.46-11.71-4.28-2.9-10-2.39-14.34.15C9.2,66.9,6.38,73.21,5.42,79.29c-.08.47.65.68.72.2,1-6,3.72-12.29,9.26-15.38a14.12,14.12,0,0,1,8.36-1.77,12.06,12.06,0,0,1,7.51,4.11c3.65,4,5.91,9.09,11.11,11.41a15.49,15.49,0,0,0,14.69-1A18,18,0,0,0,64.9,62.67a.38.38,0,0,0-.75,0Z"/><path class="cls-2" d="M64.26,62.41a16.54,16.54,0,0,1-14.59,5.64A14.89,14.89,0,0,1,38,57.67c-1.77-6,1.17-12.47-1.35-18.32C34.8,35,30.26,32.17,25.63,31.56c-6.21-.82-12.22,2.19-16.77,6.19-.37.32.16.85.53.53,4.51-4,10.59-7,16.75-5.89C32.06,33.44,36.58,37.87,37,44c.21,3.28-.39,6.55-.27,9.84a15.71,15.71,0,0,0,1.91,7.12,15.43,15.43,0,0,0,11.3,7.9,17.28,17.28,0,0,0,14.88-5.89c.31-.37-.22-.91-.53-.53Z"/><path class="cls-2" d="M64.15,62.08a14.8,14.8,0,0,1-14.24-7.51,15,15,0,0,1,1.7-16.68c3.22-3.81,8-6.41,10-11.2,1.88-4.57.53-9.93-2.48-13.69C55.29,8.16,49,6.15,43,5.82c-.48,0-.48.72,0,.75C48.89,6.9,55.24,9,58.91,13.89c3.52,4.77,3.85,11.13,0,15.79-3.32,4-8.14,6.61-10.26,11.57a15.77,15.77,0,0,0,1.1,14.51,15.51,15.51,0,0,0,14.4,7.07c.47,0,.48-.8,0-.75Z"/></g></g></svg>