<svg xmlns="http://www.w3.org/2000/svg" xmlns:xlink="http://www.w3.org/1999/xlink" viewBox="0 0 151.59 155.13"><defs><style>.cls-1{fill:url(#Градієнт_без_назви_2);}.cls-2{fill:#242528;}</style><linearGradient id="Градієнт_без_назви_2" x1="80.15" y1="304.92" x2="233.72" y2="304.92" gradientTransform="matrix(0.78, -0.63, 0.63, 0.78, -237.84, -58.29)" gradientUnits="userSpaceOnUse"><stop offset="0" stop-color="#1f6aae"/><stop offset="0.03" stop-color="#1e72b3"/><stop offset="0.08" stop-color="#1c88c0"/><stop offset="0.13" stop-color="#18acd5"/><stop offset="0.2" stop-color="#13ddf3"/><stop offset="0.21" stop-color="#12e7f9"/><stop offset="0.43" stop-color="#ffff3b"/><stop offset="0.65" stop-color="#ff76bc"/><stop offset="0.81" stop-color="#feec9a"/><stop offset="0.83" stop-color="#f9ec9c"/><stop offset="0.86" stop-color="#ececa0"/><stop offset="0.89" stop-color="#d5eca8"/><stop offset="0.92" stop-color="#b5ecb4"/><stop offset="0.96" stop-color="#8dedc2"/><stop offset="0.99" stop-color="#5cedd3"/><stop offset="1" stop-color="#46eddb"/></linearGradient></defs><g id="Слой_2" data-name="Слой 2"><g id="Layer_1" data-name="Layer 1"><path class="cls-1" d="M37,48.35c-.2-.53-15.47-20.3-8.5-27.54S53.11,35.25,53.11,35.25,43.44,14.33,52.4,6C61-2,72.67,27.64,72.67,27.64s1.68-25,12.7-27.49S94.05,28,93.6,27.41,104.4,7.64,112.17,9.59s.21,24.92.21,24.92S128.76,23,134.56,29.83c7.32,8.68-12.87,23.36-12.68,22.75s20-7,23.14,1.46c3.69,9.78-15.34,17-15.34,17s21.38,1.37,21.9,10.08c.61,10.29-24.3,10.71-24.3,10.71s19.72,10.05,16.39,20.09c-3.86,11.63-27.65-.86-27.65-.86s17.61,19.2,8,27.21c-7.53,6.28-20.85-10.83-20.85-10.83s4.95,20.68-6.17,24.83c-7.16,2.67-13-18.31-13-17.63s-6.58,23.52-17.1,20.16c-7.55-2.41-6.16-22.29-6.16-22.29s-11.47,19.92-19.61,16.82c-10.2-3.9,0-23.32,0-23.32s-15.38,12.52-21.74,5.56c-7.69-8.41,7.37-21.86,7.37-21.86s-22,4.44-22.46-5.18S22.4,88.35,21.5,89.21,1.22,87.36,0,77.14s25.44-9.79,25.44-9.79S4.67,53.7,9.15,45.88C15.63,34.57,37,48.35,37,48.35Z"/><path class="cls-2" d="M68.08,72.62l-.28-.26A210.67,210.67,0,0,1,50.62,53.25c-5.28-6.51-10-12.84-13.29-17.82-5.26-8-4.38-8.69-4-9s1.26-1,8,5.78C45.5,36.45,50.71,42.37,56,48.89A211.51,211.51,0,0,1,71.15,69.64l.19.33-.33.19a10,10,0,0,0-1.42,1,9.4,9.4,0,0,0-1.25,1.19ZM33.87,27h-.09C33.2,28,39.05,37.8,51.2,52.78A211.52,211.52,0,0,0,68,71.55a11.25,11.25,0,0,1,2.27-1.84A213,213,0,0,0,55.42,49.36C43.55,34.73,35.3,27,33.87,27Z"/><path class="cls-2" d="M119,132.75c-3.09,0-15.7-14.51-22.25-22.59A208,208,0,0,1,81.59,89.33l-.2-.33.33-.19a10.48,10.48,0,0,0,1.42-1,9.8,9.8,0,0,0,1.23-1.18l.26-.29.28.26a209,209,0,0,1,17.25,19.17h0c5.28,6.51,10,12.84,13.28,17.81,5.27,8,4.39,8.7,4,9A.64.64,0,0,1,119,132.75ZM82.42,89.27a212.2,212.2,0,0,0,14.94,20.42c12.15,15,20.51,22.72,21.63,22.34.58-1-5.26-10.78-17.42-25.76h0a209.79,209.79,0,0,0-16.9-18.83,12.41,12.41,0,0,1-1.06,1A12.7,12.7,0,0,1,82.42,89.27Z"/><path class="cls-2" d="M25.38,124.57a.75.75,0,0,1-.6-.22c-1.8-2.07,13.38-16.23,21.66-23.43A207.68,207.68,0,0,1,66.71,85l.32-.21.2.33A10.72,10.72,0,0,0,68,86.27a10.29,10.29,0,0,0,1.47,1.48l.29.25-.25.29A208.12,208.12,0,0,1,51,106.15C43.31,112.83,28.85,124.57,25.38,124.57ZM66.8,85.88a212.5,212.5,0,0,0-19.87,15.6c-14.55,12.66-22,21.28-21.58,22.39,1,.53,10.6-5.63,25.15-18.29a210.94,210.94,0,0,0,18.21-17.5,11.58,11.58,0,0,1-1.28-1.34A9.93,9.93,0,0,1,66.8,85.88Z"/><path class="cls-2" d="M85.7,74.15l-.2-.33a11.08,11.08,0,0,0-.78-1.1,10.37,10.37,0,0,0-1.47-1.49L83,71l.25-.29a208.53,208.53,0,0,1,18.54-17.85c8.28-7.2,24.4-20.27,26.21-18.21h0c.32.37,1.06,1.22-5.51,8.18-4.09,4.33-9.83,9.75-16.16,15.25A206.91,206.91,0,0,1,86,73.94ZM84,70.9a11.66,11.66,0,0,1,1.28,1.34c.23.29.44.57.63.86a211.65,211.65,0,0,0,19.86-15.6c14.48-12.6,21.93-21.19,21.59-22.37-1.11-.52-10.66,5.67-25.15,18.27A212.39,212.39,0,0,0,84,70.9Z"/><path class="cls-2" d="M68.62,147.41h-.14c-.48-.06-1.61-.19-1.44-9.76.1-6,.69-13.83,1.66-22.16A208.44,208.44,0,0,1,73,90.11l.09-.37.37.1a10.88,10.88,0,0,0,3.42.4l.38,0v.38a207.22,207.22,0,0,1-1.66,25.68c-1,8.34-2.2,16.13-3.46,22C70.26,146.79,69.16,147.41,68.62,147.41Zm5-56.75a212.63,212.63,0,0,0-4.16,24.91c-2.22,19.16-1.92,30.54-.86,31.08,1.13-.29,4-11.3,6.26-30.45A214.28,214.28,0,0,0,76.5,91,11.68,11.68,0,0,1,73.6,90.66Z"/><path class="cls-2" d="M79.66,69.25l-.37-.1a10.5,10.5,0,0,0-3.41-.4H75.5v-.38A207.89,207.89,0,0,1,77.15,42.7c1.26-10.9,4.39-31.44,7.09-31.12s1.05,21-.21,31.92h0a210.4,210.4,0,0,1-4.27,25.38ZM76.34,68a11.83,11.83,0,0,1,2.79.33,212.3,212.3,0,0,0,4.15-24.91h0c2.23-19.16,1.92-30.54.86-31.09-1.12.29-4,11.3-6.25,30.46A214.81,214.81,0,0,0,76.23,68Z"/><path class="cls-2" d="M43.83,82.49c-1.37,0-2.75,0-4.15,0C28.71,82.32,8,81.32,8,78.58c0-.49,0-1.62,9.55-2.43,6-.51,13.84-.73,22.21-.61A209.22,209.22,0,0,1,65.46,77.2l.38.06-.07.38a10.6,10.6,0,0,0,0,3.42l.06.38-.38,0A190.52,190.52,0,0,1,43.83,82.49Zm-8.55-6.23c-16.54,0-26.13,1.32-26.53,2.34.41,1.09,11.66,2.86,30.94,3.12a211.67,211.67,0,0,0,25.24-.93,11.26,11.26,0,0,1,0-2.9,209.91,209.91,0,0,0-25.21-1.6Z"/><path class="cls-2" d="M117.21,83.48l-4.26,0a210.09,210.09,0,0,1-25.69-1.66l-.38-.06.07-.38a10.39,10.39,0,0,0,0-3.43l-.06-.38.38-.05a209.33,209.33,0,0,1,25.72-1c11,.14,31.71,1.14,31.68,3.89h0c0,.48,0,1.62-9.56,2.43C130.24,83.26,124,83.48,117.21,83.48ZM87.75,81.1A210.65,210.65,0,0,0,113,82.7c19.19.25,30.47-1.19,31-2.3-.5-1.13-11.74-2.88-30.93-3.13a212.85,212.85,0,0,0-25.24.92A11.34,11.34,0,0,1,87.75,81.1Z"/><path class="cls-2" d="M95.39,145.13c-2.72,0-9-19.17-12.07-29.5a208.4,208.4,0,0,1-5.95-25l-.05-.38.38,0a10.55,10.55,0,0,0,3.29-1l.35-.17.16.35A209.09,209.09,0,0,1,90,113.69c3.08,10.53,8.2,30.65,5.57,31.42ZM78.17,90.85A208.86,208.86,0,0,0,84,115.42c5.41,18.52,10.12,28.88,11.31,29,.92-.71-.69-12-6.1-30.49A212.84,212.84,0,0,0,81,90,11.5,11.5,0,0,1,78.17,90.85Z"/><path class="cls-2" d="M71.39,70l-.16-.35a208.43,208.43,0,0,1-8.48-24.3c-4-13.63-7.33-28.66-6-31A.76.76,0,0,1,57.8,14c2.35,1.28,7.62,15.76,11.61,29.39h0a208.92,208.92,0,0,1,6,25l0,.39-.38,0a10.69,10.69,0,0,0-3.3,1Zm-14-55.35c-.92.7.7,12,6.1,30.49a212.16,212.16,0,0,0,8.29,23.85,11.5,11.5,0,0,1,2.8-.81,211.93,211.93,0,0,0-5.87-24.56h0C63.27,25.05,58.56,14.69,57.37,14.6Z"/><path class="cls-2" d="M136.53,110.07c-4.52,0-20.17-7.07-28.81-11.31A207.52,207.52,0,0,1,85.23,86.24L84.91,86l.22-.32a10.54,10.54,0,0,0,1.52-3.08l.11-.36.37.12a208.07,208.07,0,0,1,23.64,10.15c9.85,4.84,28.15,14.64,27,17.1h0C137.57,109.94,137.16,110.07,136.53,110.07ZM86,85.83a212.66,212.66,0,0,0,22.09,12.25c17.22,8.47,28,12,29,11.22,0-1.22-9.37-7.62-26.6-16.09a210.89,210.89,0,0,0-23.19-10A11.53,11.53,0,0,1,86,85.83Z"/><path class="cls-2" d="M66,76.72l-.36-.12A207.11,207.11,0,0,1,42,66.44C29.2,60.18,15.85,52.51,15,50a.8.8,0,0,1,0-.63c.22-.43.72-1.46,9.68,1.9,5.58,2.09,12.8,5.28,20.32,9A205.51,205.51,0,0,1,67.49,72.74l.32.21-.22.32a10.79,10.79,0,0,0-1.52,3.08ZM16.17,49.58a.81.81,0,0,0-.5.11c-.1,1.16,9.3,7.58,26.61,16.08a213.47,213.47,0,0,0,23.19,10,11.4,11.4,0,0,1,1.29-2.62A211,211,0,0,0,44.67,60.9C29,53.19,18.62,49.58,16.17,49.58Z"/><path class="cls-2" d="M87,77.85l-.07-.38a10.57,10.57,0,0,0-1.18-3.22l-.19-.34.34-.18a209.16,209.16,0,0,1,23.7-10c10.31-3.76,30.05-10.18,31-7.6h0c.93,2.57-18.32,10.35-28.63,14.11a207.41,207.41,0,0,1-24.6,7.56Zm-.41-3.63a11.37,11.37,0,0,1,1,2.74,212.68,212.68,0,0,0,24.13-7.46c18-6.57,28.06-11.92,28.17-13.15-.88-.87-12,1.48-30,8.05A212.48,212.48,0,0,0,86.59,74.22Z"/><path class="cls-2" d="M13.9,103.48c-1,0-1.62-.18-1.77-.59-.94-2.57,18.31-10.36,28.62-14.11a208.73,208.73,0,0,1,24.6-7.57l.38-.08.07.38A10.45,10.45,0,0,0,67,84.73l.19.34-.34.18a207.83,207.83,0,0,1-23.7,10C34.46,98.44,19.12,103.48,13.9,103.48ZM65.14,82A210.66,210.66,0,0,0,41,89.48c-18.13,6.61-28.17,12-28.18,13.17.77.87,11.91-1.47,30-8.07a210.79,210.79,0,0,0,23.27-9.82A11,11,0,0,1,65.14,82Z"/><path class="cls-2" d="M83.09,71.09l-.31-.23a10.61,10.61,0,0,0-3-1.58l-.37-.12.13-.36A208.59,208.59,0,0,1,90.19,45.38c5.06-9.73,15.25-27.8,17.7-26.55s-6.5,20-11.56,29.75h0a206.94,206.94,0,0,1-13,22.2Zm-2.75-2.4A11.93,11.93,0,0,1,82.92,70,212.53,212.53,0,0,0,95.67,48.24h0c8.89-17.12,12.66-27.87,11.86-28.75h0c-1.21,0-7.81,9.24-16.65,26.24A210.73,210.73,0,0,0,80.34,68.69Z"/><path class="cls-2" d="M45.17,140.23a.81.81,0,0,1-.34-.08.79.79,0,0,1-.38-.5c-.81-2.56,5.39-16.65,11.94-29.25a211.39,211.39,0,0,1,13-22.2l.22-.31.31.23a10.54,10.54,0,0,0,3,1.58l.36.13-.13.36A208,208,0,0,1,62.54,113.6C56,126.2,48,139.37,45.46,140.18A1,1,0,0,1,45.17,140.23ZM69.81,89a210.62,210.62,0,0,0-12.75,21.8c-8.9,17.11-12.66,27.86-11.87,28.74,1.13.12,7.79-9.12,16.68-26.24a210.83,210.83,0,0,0,10.52-23A11.7,11.7,0,0,1,69.81,89Z"/></g></g></svg>