<svg xmlns="http://www.w3.org/2000/svg" xmlns:xlink="http://www.w3.org/1999/xlink" viewBox="0 0 150.63 146.95"><defs><style>.cls-1{fill:url(#Градієнт_без_назви_4);}.cls-2{fill:#242528;}</style><linearGradient id="Градієнт_без_назви_4" x1="101.24" y1="-0.8" x2="18.2" y2="226.97" gradientUnits="userSpaceOnUse"><stop offset="0.04" stop-color="#f150ae"/><stop offset="0.09" stop-color="#f56b89"/><stop offset="0.19" stop-color="#fc974d"/><stop offset="0.23" stop-color="#ffa835"/><stop offset="0.36" stop-color="#ffe7e7"/><stop offset="0.47" stop-color="#ffff3b"/><stop offset="0.57" stop-color="#ff9fff"/><stop offset="0.82" stop-color="#7ff4fe"/><stop offset="0.85" stop-color="#80effe"/><stop offset="0.88" stop-color="#83e2fe"/><stop offset="0.91" stop-color="#88cbfe"/><stop offset="0.95" stop-color="#8facff"/><stop offset="0.98" stop-color="#9783ff"/><stop offset="1" stop-color="#9c6eff"/></linearGradient></defs><g id="Слой_2" data-name="Слой 2"><g id="Layer_1" data-name="Layer 1"><path class="cls-1" d="M149.59,37.45c-2.67-5.16-10.12-7.37-20.59-6.9a9.13,9.13,0,0,1-9.59-9.19c.07-10.63-2.47-18.07-7.82-20.51-7.08-3.24-17.69,3-28.87,15.47a9.14,9.14,0,0,1-13.29.27c-12.94-13-24.92-19.1-32.13-15C32.1,4.5,30.17,12.3,31.16,23.09A9.12,9.12,0,0,1,22.3,33C11,33.2,3.06,36.05.72,41.7-2.35,49.06,4.58,59.65,18,70.48a9.08,9.08,0,0,1,.72,13.4C8.42,94.57,3.69,104.36,7,110.78c2.61,5.06,9.82,7.31,20,7a9.16,9.16,0,0,1,9.5,9.06c.12,10,2.67,17,7.8,19.29,7.31,3.34,18.32-3.32,29.84-16.58a9.15,9.15,0,0,1,13-.69c11.58,10.66,22.09,15.42,28.65,11.71,4.9-2.77,6.9-9.84,6.29-19.65a9.26,9.26,0,0,1,8.6-9.8c9.35-.71,15.8-3.52,17.9-8.54,2.6-6.24-2-14.84-11.73-23.92a9.07,9.07,0,0,1-.21-13C147.81,54.42,153,44.13,149.59,37.45ZM118.78,65.39A9.19,9.19,0,0,0,118.94,78c5.18,5.39,7.49,10.4,5.93,14.14-1.23,3-4.68,4.75-9.71,5.48a9.23,9.23,0,0,0-8,9.1c0,5.4-1.4,9.27-4.3,10.9-4,2.27-10.2-.18-17.15-6a9.2,9.2,0,0,0-12.65.69c-7,7.52-13.66,11.14-18.17,9.07-3-1.38-4.71-5.15-5.14-10.58a9.12,9.12,0,0,0-8.83-8.42c-5.56-.16-9.48-1.68-11-4.67-2-3.92.42-9.71,6.1-16.12a9.07,9.07,0,0,0-1-12.82c-7.52-6.58-11.22-12.89-9.36-17.39,1.39-3.35,5.67-5.22,11.87-5.71A9.16,9.16,0,0,0,46,36.27c-.15-5.87,1.21-10.1,4.26-11.83,4.46-2.51,11.63.79,19.51,8.12a9.22,9.22,0,0,0,12.93-.33c6.76-6.95,13-10.23,17.39-8.25,3.15,1.44,4.86,5.49,5.18,11.32a9.11,9.11,0,0,0,9,8.57c5.73.1,9.78,1.61,11.35,4.66C127.63,52.59,124.92,58.67,118.78,65.39Z"/><path class="cls-2" d="M52.74,137.28a8.56,8.56,0,0,1-3.65-.77c-4.4-2-6.82-7.91-7-17a7.56,7.56,0,0,0-7.78-7.47c-9.17.25-15.21-1.91-17.46-6.29-2.85-5.51.71-13.87,10-23.54A7.55,7.55,0,0,0,29,76.55a7.33,7.33,0,0,0-2.73-5.31C14.11,61.4,8.62,52.18,11.17,46c2-4.86,8.48-7.5,18.77-7.63a7.21,7.21,0,0,0,5.31-2.43,7.42,7.42,0,0,0,1.86-5.66c-.94-9.83.91-16.36,5.35-18.87,6.1-3.44,16.3,1.35,28,13.15a7.66,7.66,0,0,0,5.62,2.27,7.21,7.21,0,0,0,5.21-2.42C91.4,13,100.3,8.25,106.37,11.07c4.59,2.13,7,8.36,7,18a7.55,7.55,0,0,0,7.86,7.59c9.46-.39,15.69,1.77,18,6.23h0c2.95,5.74-1,14.48-11,24.61a7.36,7.36,0,0,0-2.13,5.34,7.47,7.47,0,0,0,2.36,5.34c8.78,8.26,12.42,15.74,10.24,21.06-1.78,4.31-7.17,6.91-15.61,7.51a7.44,7.44,0,0,0-7,8c.59,8.92-1.3,14.88-5.48,17.24-5.59,3.16-14.47-.49-25-10.26a7.5,7.5,0,0,0-5.52-2,7.22,7.22,0,0,0-5.1,2.5C66.57,132,58.71,137.28,52.74,137.28Zm-18.19-26a8.18,8.18,0,0,1,5.72,2.29,8.3,8.3,0,0,1,2.59,5.92c.16,8.76,2.42,14.4,6.54,16.31,5.87,2.71,15-2.41,25-14.05A7.92,7.92,0,0,1,80.06,119a8.35,8.35,0,0,1,6.07,2.18c10.13,9.4,18.93,13.1,24.13,10.16,3.91-2.21,5.67-7.93,5.1-16.54A8.19,8.19,0,0,1,123,106c8.13-.58,13.31-3,15-7,2.06-5-1.51-12.19-10-20.23A8.21,8.21,0,0,1,127.68,67c9.66-9.74,13.62-18.39,10.87-23.74h0c-2.16-4.17-8.14-6.19-17.29-5.82a8.3,8.3,0,0,1-8.64-8.34c0-9.35-2.26-15.35-6.56-17.35-5.66-2.63-14.48,2.15-24.2,13.1a8,8,0,0,1-5.75,2.68A8.38,8.38,0,0,1,69.94,25C58.49,13.5,48.61,8.75,42.83,12c-4.16,2.35-5.88,8.62-5,18.14a8.17,8.17,0,0,1-2,6.23A8,8,0,0,1,30,39.07c-10,.13-16.22,2.6-18.08,7.16C9.45,52.14,14.86,61,26.7,70.65a8.12,8.12,0,0,1,3,5.85,8.35,8.35,0,0,1-2.29,6.25c-9.06,9.42-12.57,17.48-9.89,22.67,2.12,4.11,7.91,6.15,16.78,5.89Z"/></g></g></svg>