<svg xmlns="http://www.w3.org/2000/svg" xmlns:xlink="http://www.w3.org/1999/xlink" viewBox="0 0 174.69 174.24"><defs><style>.cls-1{fill:url(#Градієнт_без_назви_6);}.cls-2{fill:#242528;}</style><linearGradient id="Градієнт_без_назви_6" x1="48.07" y1="153.23" x2="125.6" y2="20.5" gradientUnits="userSpaceOnUse"><stop offset="0" stop-color="#af44ec"/><stop offset="0.06" stop-color="#c77cb7"/><stop offset="0.14" stop-color="#e5c275"/><stop offset="0.2" stop-color="#f8ee4b"/><stop offset="0.23" stop-color="#ffff3b"/><stop offset="0.39" stop-color="#ffffdb"/><stop offset="0.55" stop-color="#4ed8a5"/><stop offset="0.7" stop-color="#0587db"/><stop offset="0.72" stop-color="#1587db"/><stop offset="0.76" stop-color="#4088da"/><stop offset="0.82" stop-color="#8588d8"/><stop offset="0.89" stop-color="#e389d6"/><stop offset="0.89" stop-color="#eb89d6"/><stop offset="1" stop-color="#cbe0e3"/></linearGradient></defs><g id="Слой_2" data-name="Слой 2"><g id="Layer_1" data-name="Layer 1"><path class="cls-1" d="M173.72,117.86c-3,8.18-11.84,14.47-29.62,14.14,4.19,17.89,1.25,25.41-5.71,30.94-9.77,7.77-29.53.87-42.25-15.73-10.23,21.15-28.52,30.34-39.14,26-8.31-3.44-14.91-13.63-13.55-32.29-18.5,3.72-26.59.82-31.05-7-5.29-9.33-2.87-23.23,15.22-40.25C4.15,78.84-2.93,64.86,1,54.06c3.29-9,12.46-15.3,33-14.06C29,20.61,33.53,10.72,41.5,5.77c10-6.21,25.16-.28,44.85,20.78,15.36-22,29.31-29.71,39.73-25.41C134.65,4.67,139.7,14.3,138,33.88c19.06-4,29.75-.33,34.29,7.71,5.38,9.49-.48,23.72-19.21,41.06C171.47,95.74,177.21,108.37,173.72,117.86Z"/><path class="cls-2" d="M127.05,159.52c-11,0-27.84-12.58-45.26-34.41-32.41,14.26-58.28,16.47-64.43,5.49C11.45,120,25.73,99.37,52.92,79.14,37,46.25,33.58,19.65,44.36,12.88S78.21,22,100.28,51.74c32-13.93,57.59-16,63.66-5.16h0c6,10.7-8.59,31.57-36.27,52,13.17,29.85,15.29,53.13,5.38,59.34A11,11,0,0,1,127.05,159.52ZM82,124.19l.18.22c20.47,25.74,40.75,39,50.45,32.86,9.46-5.93,7.13-29.51-5.79-58.68l-.12-.28.24-.18C154.5,77.9,169.09,57.33,163.28,47s-31.19-8.27-63,5.59l-.27.12-.18-.24C78,22.89,55.32,6.89,44.76,13.52,34.45,20,38.14,47,53.73,79.09l.14.28-.25.19c-27,20-41.34,40.42-35.6,50.67,5.87,10.49,32.08,8.06,63.73-5.93Z"/><path class="cls-2" d="M62.09,167.51a10.33,10.33,0,0,1-4-.77C47,162.11,45.68,136.92,54.78,104,22.24,88,3.34,69.24,7.71,57.19S39.93,43.27,75.4,52.88C92.14,21.93,111,4.34,122.39,9.09h0c11.22,4.69,12.45,30.22,3.07,63.57C154,88,169.83,105,165.82,116c-4.13,11.37-27.8,13.79-60.33,6.17C90.48,150.25,73.72,167.51,62.09,167.51ZM34.92,47.42c-14.34,0-24.1,3.39-26.51,10-4.18,11.52,15.14,30.45,47,46l.28.14-.09.3c-9.08,32.67-8,57.64,2.8,62.13,11,4.59,30.16-13.69,46.58-44.46l.14-.25.28.07c31.79,7.48,55.79,5.22,59.73-5.63,3.84-10.57-12.35-27.69-40.27-42.6l-.26-.14.08-.29c9.35-33.11,8.32-58.41-2.56-63h0c-11-4.61-29.6,13-46.19,43.72l-.14.26-.28-.08C60.06,49.48,46.1,47.42,34.92,47.42Z"/></g></g></svg>